<svg width="21" height="21" viewBox="0 0 21 21" fill="none" xmlns="http://www.w3.org/2000/svg">
<path d="M7.61 19.9995C7.12203 19.9966 6.64822 19.8352 6.26 19.5395L4.19 17.9995C3.71231 17.6271 3.39536 17.0859 3.30423 16.487C3.21311 15.8882 3.35472 15.2772 3.7 14.7795C3.88269 14.5098 3.9988 14.2005 4.03878 13.8772C4.07876 13.5538 4.04148 13.2256 3.93 12.9195L3.87 12.7595C3.79238 12.4824 3.65051 12.2275 3.45591 12.0156C3.26131 11.8036 3.01946 11.6405 2.75 11.5395H2.59C2.00588 11.3431 1.52281 10.9242 1.24571 10.3737C0.968613 9.82326 0.919846 9.18571 1.11 8.59951L1.93 5.99951C2.00549 5.69827 2.14446 5.41664 2.33762 5.17347C2.53078 4.9303 2.77366 4.7312 3.05 4.58951C3.30736 4.45691 3.58894 4.37791 3.8777 4.35728C4.16647 4.33666 4.45642 4.37484 4.73 4.46951C5.02789 4.56976 5.34575 4.59575 5.65596 4.54521C5.96617 4.49467 6.25935 4.36913 6.51 4.17951L6.64 4.07951C6.8669 3.89847 7.05028 3.66881 7.17662 3.40748C7.30296 3.14614 7.36904 2.85978 7.37001 2.56951V2.32951C7.36732 1.71764 7.60645 1.12949 8.03535 0.693094C8.46425 0.256704 9.04818 0.00741799 9.66001 -0.000488281H12.21C12.5077 0.000313911 12.8023 0.059916 13.0768 0.174895C13.3514 0.289874 13.6006 0.457964 13.81 0.669512C14.2503 1.1173 14.4949 1.72154 14.49 2.34951V2.62951C14.4849 2.90526 14.5447 3.17835 14.6646 3.42674C14.7844 3.67514 14.961 3.89189 15.18 4.05951L15.29 4.13951C15.5144 4.30781 15.7762 4.41935 16.0531 4.46462C16.33 4.5099 16.6136 4.48756 16.88 4.39951L17.22 4.28951C17.5081 4.19402 17.8124 4.15753 18.1149 4.18221C18.4174 4.20689 18.7118 4.29223 18.9805 4.43315C19.2493 4.57407 19.487 4.76768 19.6793 5.00243C19.8716 5.23718 20.0147 5.50827 20.1 5.79951L20.89 8.31951C21.0728 8.9019 21.0228 9.53247 20.7506 10.0788C20.4784 10.6251 20.005 11.0447 19.43 11.2495L19.23 11.3195C18.9358 11.4158 18.6698 11.5829 18.4554 11.8061C18.2409 12.0293 18.0845 12.3017 18 12.5995C17.9204 12.8763 17.9015 13.1671 17.9447 13.4518C17.9878 13.7366 18.092 14.0087 18.25 14.2495L18.51 14.6295C18.8548 15.13 18.9951 15.7433 18.9021 16.3439C18.8092 16.9445 18.49 17.4867 18.01 17.8595L16 19.4095C15.7572 19.5952 15.4789 19.7293 15.1823 19.8034C14.8857 19.8775 14.5771 19.8901 14.2755 19.8405C13.9738 19.7908 13.6855 19.6799 13.4283 19.5147C13.1711 19.3494 12.9505 19.1333 12.78 18.8795L12.66 18.7095C12.4962 18.4634 12.2728 18.2628 12.0104 18.1264C11.7481 17.99 11.4556 17.9222 11.16 17.9295C10.878 17.9368 10.6016 18.0103 10.3532 18.1441C10.1048 18.2778 9.89135 18.4681 9.73001 18.6995L9.50001 19.0295C9.32945 19.285 9.10837 19.5029 8.85039 19.6697C8.59242 19.8366 8.30301 19.9488 8.00001 19.9995C7.87032 20.0122 7.73969 20.0122 7.61 19.9995ZM3.4 9.61951C3.9647 9.82087 4.47423 10.152 4.8876 10.5862C5.30098 11.0204 5.60664 11.5456 5.78 12.1195V12.2395C5.99594 12.8361 6.06684 13.4756 5.98686 14.105C5.90687 14.7345 5.6783 15.3359 5.32 15.8595C5.25676 15.9294 5.22174 16.0203 5.22174 16.1145C5.22174 16.2088 5.25676 16.2996 5.32 16.3695L7.47001 17.9995C7.49806 18.0215 7.5305 18.0373 7.56515 18.0458C7.5998 18.0542 7.63586 18.0552 7.6709 18.0486C7.70595 18.0419 7.73917 18.0279 7.76834 18.0073C7.79751 17.9868 7.82194 17.9603 7.84001 17.9295L8.07 17.5995C8.41689 17.0983 8.88015 16.6886 9.42006 16.4057C9.95998 16.1228 10.5604 15.9749 11.17 15.9749C11.7796 15.9749 12.38 16.1228 12.9199 16.4057C13.4599 16.6886 13.9231 17.0983 14.27 17.5995L14.39 17.7795C14.433 17.8405 14.4972 17.8833 14.57 17.8995C14.6034 17.9044 14.6375 17.9026 14.6701 17.894C14.7028 17.8854 14.7334 17.8702 14.76 17.8495L16.82 16.2895C16.8921 16.2323 16.9396 16.1496 16.9526 16.0585C16.9656 15.9673 16.9432 15.8746 16.89 15.7995L16.63 15.4195C16.2912 14.9255 16.0677 14.3617 15.976 13.7698C15.8843 13.1779 15.9266 12.5729 16.1 11.9995C16.2757 11.3969 16.5936 10.8453 17.027 10.3911C17.4603 9.93689 17.9963 9.5934 18.59 9.38951L18.79 9.31951C18.8734 9.28612 18.9401 9.22112 18.9757 9.13868C19.0113 9.05625 19.0129 8.96308 18.98 8.87951L18.2 6.38951C18.1813 6.34594 18.1539 6.30664 18.1195 6.27398C18.0851 6.24131 18.0445 6.21598 18 6.19951C17.9706 6.18458 17.938 6.1768 17.905 6.1768C17.872 6.1768 17.8394 6.18458 17.81 6.19951L17.47 6.30951C16.8949 6.49933 16.2822 6.54663 15.6847 6.44735C15.0873 6.34806 14.5228 6.10515 14.04 5.73951L14 5.64951C13.5367 5.29863 13.161 4.84512 12.9025 4.3246C12.644 3.80407 12.5096 3.2307 12.51 2.64951V2.33951C12.5118 2.24313 12.4759 2.14984 12.41 2.07951C12.3525 2.02752 12.2775 1.99898 12.2 1.99951H9.66001C9.61927 2.00205 9.57943 2.01262 9.54278 2.0306C9.50614 2.04857 9.4734 2.07361 9.44646 2.10427C9.41951 2.13494 9.39889 2.17062 9.38577 2.20927C9.37265 2.24792 9.36729 2.28878 9.37001 2.32951V2.57951C9.37007 3.17655 9.23305 3.76563 8.96952 4.30136C8.70599 4.83709 8.32298 5.30517 7.85001 5.66951L7.72001 5.76951C7.20973 6.15802 6.61173 6.41504 5.9787 6.51793C5.34567 6.62082 4.69705 6.56642 4.09 6.35951C4.04458 6.34427 3.99543 6.34427 3.95 6.35951C3.89357 6.3938 3.85107 6.44693 3.83 6.50951L3 9.11951C2.97107 9.2084 2.97785 9.30506 3.01891 9.38905C3.05997 9.47303 3.13208 9.53775 3.22 9.56951L3.4 9.61951Z" fill="#FFC600"/>
<path d="M11 13.5C10.3078 13.5 9.63108 13.2947 9.05551 12.9101C8.47993 12.5256 8.03133 11.9789 7.76642 11.3394C7.50152 10.6999 7.4322 9.99612 7.56725 9.31719C7.7023 8.63825 8.03564 8.01461 8.52513 7.52513C9.01461 7.03564 9.63825 6.7023 10.3172 6.56725C10.9961 6.4322 11.6999 6.50152 12.3394 6.76642C12.9789 7.03133 13.5256 7.47993 13.9101 8.05551C14.2947 8.63108 14.5 9.30777 14.5 10C14.5 10.9283 14.1313 11.8185 13.4749 12.4749C12.8185 13.1313 11.9283 13.5 11 13.5ZM11 8.5C10.7033 8.5 10.4133 8.58798 10.1666 8.7528C9.91997 8.91762 9.72771 9.15189 9.61418 9.42598C9.50065 9.70007 9.47095 10.0017 9.52882 10.2926C9.5867 10.5836 9.72956 10.8509 9.93934 11.0607C10.1491 11.2704 10.4164 11.4133 10.7074 11.4712C10.9983 11.5291 11.2999 11.4994 11.574 11.3858C11.8481 11.2723 12.0824 11.08 12.2472 10.8334C12.412 10.5867 12.5 10.2967 12.5 10C12.5 9.60218 12.342 9.22065 12.0607 8.93934C11.7794 8.65804 11.3978 8.5 11 8.5Z" fill="#FFC600"/>
</svg>
