<svg width="20" height="20" viewBox="0 0 20 20" fill="none" xmlns="http://www.w3.org/2000/svg">
<path d="M9.99999 -0.000244141C8.02218 -0.000244141 6.08878 0.586246 4.44429 1.68506C2.7998 2.78387 1.51807 4.34566 0.761194 6.17292C0.00431758 8.00018 -0.193716 10.0108 0.192136 11.9507C0.577989 13.8905 1.5304 15.6723 2.92892 17.0708C4.32745 18.4693 6.10928 19.4218 8.04909 19.8076C9.9889 20.1935 11.9996 19.9954 13.8268 19.2386C15.6541 18.4817 17.2159 17.1999 18.3147 15.5555C19.4135 13.911 20 11.9776 20 9.99975C20 8.68654 19.7413 7.38618 19.2388 6.17292C18.7362 4.95966 17.9996 3.85727 17.0711 2.92869C16.1425 2.0001 15.0401 1.26351 13.8268 0.76096C12.6136 0.258414 11.3132 -0.000244141 9.99999 -0.000244141ZM9.99999 17.9998C8.41774 17.9998 6.87102 17.5306 5.55543 16.6515C4.23983 15.7725 3.21445 14.523 2.60895 13.0612C2.00345 11.5994 1.84503 9.99088 2.15371 8.43903C2.46239 6.88718 3.22431 5.46172 4.34313 4.3429C5.46196 3.22408 6.88742 2.46216 8.43927 2.15347C9.99112 1.84479 11.5996 2.00322 13.0615 2.60872C14.5233 3.21422 15.7727 4.2396 16.6517 5.55519C17.5308 6.87079 18 8.4175 18 9.99975C18 12.1215 17.1571 14.1563 15.6568 15.6566C14.1566 17.1569 12.1217 17.9998 9.99999 17.9998Z" fill="#C9C9C9"/>
<path d="M9.99998 7.00024C10.5523 7.00024 11 6.55253 11 6.00024C11 5.44796 10.5523 5.00024 9.99998 5.00024C9.4477 5.00024 8.99998 5.44796 8.99998 6.00024C8.99998 6.55253 9.4477 7.00024 9.99998 7.00024Z" fill="#C9C9C9"/>
<path d="M9.99998 8C9.73477 8 9.48041 8.10536 9.29288 8.29289C9.10534 8.48043 8.99998 8.73478 8.99998 9V14C8.99998 14.2652 9.10534 14.5196 9.29288 14.7071C9.48041 14.8946 9.73477 15 9.99998 15C10.2652 15 10.5196 14.8946 10.7071 14.7071C10.8946 14.5196 11 14.2652 11 14V9C11 8.73478 10.8946 8.48043 10.7071 8.29289C10.5196 8.10536 10.2652 8 9.99998 8Z" fill="#C9C9C9"/>
</svg>
